<?xml version="1.0" standalone="no"?>
<!DOCTYPE svg PUBLIC "-//W3C//DTD SVG 20010904//EN"
 "http://www.w3.org/TR/2001/REC-SVG-20010904/DTD/svg10.dtd">
<svg version="1.0" xmlns="http://www.w3.org/2000/svg"
 width="600.000000pt" height="600.000000pt" viewBox="0 0 600.000000 600.000000"
 preserveAspectRatio="xMidYMid meet">

<g transform="translate(0.000000,600.000000) scale(0.100000,-0.100000)"
fill="#000000" stroke="none">
<path d="M3715 5510 c-227 -20 -551 -102 -992 -254 -172 -59 -319 -81 -493
-73 -318 15 -561 80 -1133 300 l-67 26 2 -2362 3 -2363 37 -75 c46 -93 112
-158 206 -202 l67 -32 1622 -3 c1620 -2 1623 -2 1685 19 144 48 242 157 283
314 13 52 15 313 15 2297 l0 2238 -56 25 c-148 65 -397 125 -601 145 -121 11
-441 11 -578 0z m599 -1269 c37 -39 49 -135 43 -346 -3 -128 -8 -171 -25 -215
-77 -210 -210 -417 -546 -850 -75 -97 -171 -198 -268 -282 -99 -87 -216 -173
-224 -165 -17 16 133 370 231 546 106 191 273 436 434 636 49 60 83 113 87
133 21 111 -68 199 -181 178 -45 -9 -178 -126 -313 -276 -279 -308 -452 -577
-605 -940 l-32 -75 -7 55 c-10 69 -1 222 19 319 31 156 156 430 288 632 181
275 356 446 571 556 149 77 301 120 430 122 65 1 72 -1 98 -28z m-376 -501 c2
-18 -12 -43 -50 -90 -234 -285 -471 -661 -595 -942 -101 -230 -166 -468 -213
-774 -42 -276 -48 -302 -70 -309 -36 -11 -56 11 -80 92 -36 117 -39 309 -10
469 94 502 365 986 795 1422 144 146 165 163 191 160 22 -2 30 -9 32 -28z
m-1070 -497 c-6 -16 -21 -55 -33 -88 l-23 -60 -306 -3 -307 -2 -24 24 c-38 38
-35 96 6 130 l31 26 334 0 334 0 -12 -27z m-102 -500 c0 -116 7 -236 17 -314
12 -88 14 -135 7 -159 -45 -157 -40 -495 9 -622 l11 -28 -436 0 c-473 0 -485
1 -520 56 -10 15 -32 75 -50 133 -17 58 -44 147 -59 196 -38 124 -55 185 -59
220 -2 17 -16 74 -31 128 -38 140 -26 169 100 236 88 48 234 107 322 131 128
36 173 77 173 157 0 22 3 43 7 46 3 4 119 7 257 7 l252 0 0 -187z"/>
</g>
</svg>
